<?xml version="1.0" encoding="UTF-8" standalone="no"?>
<!-- Created with Inkscape (http://www.inkscape.org/) -->

<svg
   xmlns:dc="http://purl.org/dc/elements/1.1/"
   xmlns:cc="http://creativecommons.org/ns#"
   xmlns:rdf="http://www.w3.org/1999/02/22-rdf-syntax-ns#"
   xmlns:svg="http://www.w3.org/2000/svg"
   xmlns="http://www.w3.org/2000/svg"
   xmlns:sodipodi="http://sodipodi.sourceforge.net/DTD/sodipodi-0.dtd"
   xmlns:inkscape="http://www.inkscape.org/namespaces/inkscape"
   width="99.209557mm"
   height="30.439142mm"
   viewBox="0 0 351.52992 107.85523"
   id="svg4233"
   version="1.1"
   inkscape:version="0.91 r13725"
   sodipodi:docname="logo.svg"
   inkscape:export-filename="/home/fuchur/logo.svg.png"
   inkscape:export-xdpi="153.61"
   inkscape:export-ydpi="153.61">
  <defs
     id="defs4235" />
  <sodipodi:namedview
     id="base"
     pagecolor="#ffffff"
     bordercolor="#666666"
     borderopacity="1.0"
     inkscape:pageopacity="0.0"
     inkscape:pageshadow="2"
     inkscape:zoom="1.979899"
     inkscape:cx="157.71562"
     inkscape:cy="81.502897"
     inkscape:document-units="px"
     inkscape:current-layer="layer1"
     showgrid="false"
     fit-margin-top="0"
     fit-margin-left="0"
     fit-margin-right="0"
     fit-margin-bottom="0"
     inkscape:window-width="1920"
     inkscape:window-height="1016"
     inkscape:window-x="0"
     inkscape:window-y="27"
     inkscape:window-maximized="1" />
  <metadata
     id="metadata4238">
    <rdf:RDF>
      <cc:Work
         rdf:about="">
        <dc:format>image/svg+xml</dc:format>
        <dc:type
           rdf:resource="http://purl.org/dc/dcmitype/StillImage" />
        <dc:title></dc:title>
      </cc:Work>
    </rdf:RDF>
  </metadata>
  <g
     inkscape:label="Layer 1"
     inkscape:groupmode="layer"
     id="layer1"
     transform="translate(-164.23503,-627.00602)">
    <g
       id="g4743"
       transform="matrix(0.80362837,0,0,0.80362837,47.876113,-32.175816)">
      <path
         sodipodi:nodetypes="csscsccsccsscccssccssssssccccccsssssscscsscsssscccccccccccc"
         inkscape:connector-curvature="0"
         id="path4243-7-1-7-4"
         d="m 532.89072,872.15997 c -9.71525,1.40136 -18.43897,5.89108 -25.43116,13.08834 -3.26878,3.36464 -5.69355,6.79762 -7.66582,10.8532 l -0.81553,1.67698 -0.24617,-0.30401 c -0.41833,-0.51661 -0.95328,-1.68465 -1.20832,-2.63828 -0.81567,-3.81042 -0.73993,-4.62992 -0.73376,-8.67556 0,-1.88187 0.38056,-3.81483 0.12372,-4.59835 -0.16218,-0.49476 -0.51065,-1.17539 -0.79231,-1.54753 l -0.97507,-1.84496 1.41023,1.25158 c 1.28812,1.14322 2.43668,1.19725 3.69548,2.97267 1.00029,1.41081 1.73644,1.37249 2.61033,1.45646 3.14149,-0.80922 1.78767,-4.46056 1.63189,-5.75029 -0.21336,-4.45373 1.62053,-10.28327 4.40207,-13.50239 0.79623,-0.88985 2.22003,-2.26962 2.22003,-2.15136 0,0.0356 -0.11656,0.32812 -0.25902,0.65018 -0.30039,0.67908 -0.52765,3.0582 -0.29593,3.75745 1.17853,0.75345 3.49211,1.49551 4.35376,-0.698 0.93079,-0.9951 1.11017,-1.48229 2.06554,-5.60978 0.88498,-3.82339 2.30174,-5.73902 6.4282,-8.6917 4.06028,-2.90532 5.38898,-4.39604 5.98415,-6.71385 0.43892,-1.70928 -0.0219,-4.23134 -1.00968,-5.52642 -0.48833,-0.64024 -0.16837,-0.47386 0.59961,0.31181 1.83308,1.87528 2.69596,4.25321 2.56729,7.0749 -0.0797,1.74797 -1.35747,4.66462 -2.58545,6.94914 -1.82302,2.36569 -0.23377,6.91303 2.66717,6.46217 1.44042,-0.27176 6.45483,0.0818 7.54351,-2.18601 2.81177,-9.00004 7.27211,-12.06601 13.28657,-17.126 6.58236,-5.64911 0.49254,-17.27579 -5.47019,-20.44315 l -0.74951,-0.2991 0.81108,0.0747 c 2.85813,0.2632 7.59551,1.98389 10.07793,4.94173 2.61325,3.11375 2.71869,6.22862 2.86225,9.53735 0.10746,2.47671 -0.17044,3.69721 -1.44717,6.35568 -1.16795,2.43197 -2.03255,3.7238 -4.40643,6.58381 -2.57542,3.10282 -3.47229,4.50983 -4.11515,6.45587 -0.34867,1.05549 -0.39231,1.34955 -0.39813,2.6828 -0.008,1.72234 0.25561,2.87261 0.99336,4.34262 1.33826,2.66659 3.77109,4.31678 6.37992,4.32754 0.70996,0.003 2.26793,-0.50661 3.0152,-0.98614 2.37685,-1.52522 3.38045,-4.54933 2.03889,-6.14369 l -0.32602,-0.38745 0.30555,0.0928 c 0.58543,0.17778 1.51374,0.74188 1.82016,1.10603 1.22929,1.46094 1.53019,3.6376 1.09798,7.94278 -0.42757,4.25904 -0.96313,6.68822 3.49444,11.69358 2.732,3.06773 4.71102,6.92928 6.82961,10.85033 11.75356,33.91217 -3.85827,-23.15116 -41.84939,-18.73989 z m 34.83801,-2.30855 c 0.0984,-9.26504 7.14403,-7.09747 7.28365,-14.56675 6.23612,9.98357 -3.87785,17.54768 -2.74168,23.26644 -1.63025,-2.04623 -4.52872,-6.5967 -4.54197,-8.69969 z M 545.907,820.2814 c 0.0901,-0.036 0.1977,-0.0316 0.23916,0.01 0.0415,0.0414 -0.0323,0.0709 -0.16377,0.0655 -0.14536,-0.006 -0.17493,-0.0356 -0.0754,-0.0754 z"
         style="fill:#d8102c;fill-opacity:1" />
      <circle
         r="40.936092"
         cy="910.81836"
         cx="538.57141"
         id="path4169-8-2-8-6"
         style="color:#000000;clip-rule:nonzero;display:inline;overflow:visible;visibility:visible;opacity:1;isolation:auto;mix-blend-mode:normal;color-interpolation:sRGB;color-interpolation-filters:linearRGB;solid-color:#000000;solid-opacity:1;fill:none;fill-opacity:1;fill-rule:nonzero;stroke:#0e559c;stroke-width:5.42584896;stroke-linecap:butt;stroke-linejoin:miter;stroke-miterlimit:4;stroke-dasharray:none;stroke-dashoffset:1.60000002;stroke-opacity:1;color-rendering:auto;image-rendering:auto;shape-rendering:auto;text-rendering:auto;enable-background:accumulate" />
    </g>
    <path
       style="fill:#f2a506;fill-opacity:1"
       d="m 473.13542,724.60109 c -8.2691,-1.92748 -15.2581,-9.16764 -17.5613,-18.19236 -3.3313,-13.05277 2.2477,-25.47773 13.7138,-30.54229 10.6409,-4.70008 22.0292,-2.92184 29.2849,4.57272 4.388,4.53245 6.3746,9.04875 4.4921,10.21221 -0.5775,0.3569 -3.3625,0.56815 -6.1888,0.46946 -3.8993,-0.13609 -5.5021,-0.62797 -6.6447,-2.03892 -5.2851,-6.52687 -16.5038,-4.94792 -20.2808,2.85439 -6.1255,12.65358 4.5285,25.63247 16.8238,20.49516 5.7979,-2.42254 5.4412,-6.67115 -0.461,-5.49071 -1.4547,0.29092 -3.178,0.0155 -3.9601,-0.63408 -1.6065,-1.33333 -1.9134,-8.78202 -0.4003,-9.71717 1.8152,-1.12181 22.3856,-0.44673 23.2156,0.76188 1.1329,1.64963 -0.04,10.5437 -1.9612,14.87075 -4.5199,10.18084 -17.1673,15.38702 -30.072,12.37896 z m 16.6952,-6.23584 c 2.0863,-0.94741 4.8473,-3.11552 6.1356,-4.818 2.4932,-3.29465 4.8076,-10.37321 3.8815,-11.87159 -0.306,-0.49516 -3.5385,-0.87115 -7.1834,-0.83553 -4.4913,0.0438 -6.033,0.31536 -4.7838,0.84236 1.0137,0.42768 3.3146,0.56627 5.1131,0.30796 2.3074,-0.33139 3.6283,-0.038 4.4873,0.99721 1.0286,1.23941 0.831,2.25662 -1.2745,6.56017 -3.4551,7.0619 -7.502,9.12133 -16.7569,8.52738 -5.3981,-0.34641 -7.3052,-0.89731 -9.8645,-2.84939 -9.6934,-7.39349 -9.4022,-25.17185 0.5198,-31.73794 6.7606,-4.47394 18.0743,-3.81941 23.2382,1.34442 1.3193,1.31931 2.7032,2.09432 3.0753,1.72219 1.1617,-1.16172 -5.0485,-5.91158 -9.1857,-7.02561 -9.327,-2.51151 -18.3997,0.75477 -23.4986,8.4598 -3.2529,4.91537 -3.9867,13.47129 -1.6746,19.52527 1.7883,4.68281 6.992,10.08958 11.076,11.50838 4.4914,1.56037 12.5069,1.24489 16.6952,-0.65708 z m -16.2345,-3.76634 c 0,-0.50687 -0.4392,-0.92158 -0.9759,-0.92158 -0.5368,0 -0.7197,0.41471 -0.4064,0.92158 0.3132,0.50685 0.7524,0.92156 0.976,0.92156 0.2235,0 0.4063,-0.41471 0.4063,-0.92156 z m -11.0588,-0.4064 c 0,-0.22352 -0.4147,-0.6627 -0.9216,-0.97596 -0.5068,-0.31326 -0.9215,-0.13039 -0.9215,0.4064 0,0.53677 0.4147,0.97596 0.9215,0.97596 0.5069,0 0.9216,-0.18288 0.9216,-0.4064 z m -2.3039,-3.2799 c 0.3132,-0.50685 0.1304,-0.92156 -0.4064,-0.92156 -0.5368,0 -0.976,0.41471 -0.976,0.92156 0,0.50687 0.1829,0.92158 0.4064,0.92158 0.2235,0 0.6627,-0.41471 0.976,-0.92158 z m -0.2353,-4.14705 c -0.2422,-1.26716 -0.8312,-2.30392 -1.3089,-2.30392 -0.4777,0 -0.5726,-0.47879 -0.211,-1.06396 0.3617,-0.58519 0.2675,-0.82285 -0.2093,-0.52815 -0.4769,0.29468 -0.782,1.70655 -0.6781,3.13748 0.2385,3.28526 0.1226,3.06247 1.5932,3.06247 0.8413,0 1.1095,-0.75898 0.8141,-2.30392 z m 29.6744,-22.8466 c -2.3318,-1.30495 -6.8607,-1.7244 -6.8607,-0.63543 0,0.49697 0.9331,0.90992 2.0736,0.91768 1.1404,0.007 2.6758,0.3951 3.4119,0.86076 0.736,0.46566 1.7224,0.60927 2.1918,0.31914 0.4695,-0.29011 0.102,-0.94809 -0.8166,-1.46215 z m 8.806,-0.65344 c 0,-0.50685 -0.4392,-0.92156 -0.9759,-0.92156 -0.5368,0 -0.7197,0.41471 -0.4064,0.92156 0.3132,0.50687 0.7524,0.92158 0.9759,0.92158 0.2235,0 0.4064,-0.41471 0.4064,-0.92158 z m -2.7647,-3.11949 c 0,-2.3415 -4.2599,-4.10883 -11.1508,-4.62624 l -6.8198,-0.51204 4.1471,1.38034 c 2.2809,0.75919 5.0837,1.55361 6.2285,1.76537 3.7409,0.692 5.7519,1.53441 5.7519,2.40946 0,0.47271 0.4147,0.85946 0.9215,0.85946 0.5069,0 0.9216,-0.57436 0.9216,-1.27635 z"
       id="path4449-64"
       inkscape:connector-curvature="0" />
    <path
       style="fill:#0e559c;fill-opacity:1"
       d="m 175.15705,713.51885 c -7.40291,-2.34123 -10.94828,-7.28579 -10.92187,-15.23223 0.0313,-9.42861 6.07251,-15.45243 15.59141,-15.5466 3.47103,-0.0343 4.62416,0.20671 7.31898,1.52995 2.03509,0.99929 3.77048,2.35988 4.77022,3.73997 1.59235,2.19819 2.59028,5.18872 1.94633,5.83266 -0.19377,0.19377 -1.75831,0.29347 -3.47676,0.22156 -2.78252,-0.11643 -3.35391,-0.35468 -5.2211,-2.17699 -1.91316,-1.86719 -2.3585,-2.04372 -5.08915,-2.01723 -3.48194,0.0338 -5.49659,1.22635 -6.9773,4.1302 -2.1352,4.18738 -0.42467,10.24387 3.44091,12.1833 3.67518,1.84389 7.16619,0.96642 9.87972,-2.48326 1.052,-1.33742 1.53712,-1.49873 4.50704,-1.49873 l 3.32815,0 -0.32451,1.99975 c -1.17873,7.26363 -10.55347,11.91685 -18.77207,9.31765 z m 9.19987,-3.10541 c 1.99337,-0.5536 5.90746,-3.94037 5.90746,-5.11161 0,-0.31712 -0.92704,0.3096 -2.06009,1.39271 -2.81754,2.69335 -3.87824,3.14591 -7.61974,3.25106 -7.28174,0.20465 -11.74511,-4.16744 -11.74511,-11.50492 0,-7.12849 4.18909,-11.62124 10.83579,-11.62124 3.75654,0 6.13134,0.82217 8.21876,2.84538 1.00156,0.97076 1.82103,1.46931 1.82103,1.10789 0,-2.17528 -5.46522,-5.05198 -9.59786,-5.05198 -7.47328,0 -12.37643,5.20114 -12.37643,13.12862 0,8.62734 7.75553,14.02483 16.61619,11.56409 z m -5.62905,-1.5028 c 0,-0.23785 -0.55311,-0.47411 -1.22912,-0.52504 -0.96599,-0.0728 -1.0542,0.018 -0.41202,0.42404 1.00444,0.63507 1.64114,0.67425 1.64114,0.101 z m 2.46822,-0.65997 c 0.19246,-0.31141 -0.0281,-0.40351 -0.51693,-0.21591 -0.95172,0.36521 -1.12585,0.75897 -0.33564,0.75897 0.28432,0 0.66798,-0.24438 0.85257,-0.54306 z m 11.26571,-15.87888 c 0,-0.57197 -0.37081,-1.18223 -0.82403,-1.35615 -0.84133,-0.32285 -1.20371,1.28394 -0.4578,2.02985 0.68405,0.68405 1.28183,0.36987 1.28183,-0.6737 z m -23.073,-3.08024 c 0,-0.45322 -0.23945,-0.82404 -0.53212,-0.82404 -0.29266,0 -0.38982,0.37082 -0.2159,0.82404 0.17392,0.45322 0.41337,0.82404 0.53212,0.82404 0.11874,0 0.2159,-0.37082 0.2159,-0.82404 z m 18.93136,-2.72186 c -0.89464,-0.71491 -1.71784,-1.21016 -1.82935,-1.10056 -0.3165,0.3111 1.42808,1.89967 2.08625,1.89967 0.32373,0 0.5886,0.28841 0.5886,0.64092 0,0.3525 0.17575,0.46517 0.39055,0.25036 0.2148,-0.2148 -0.34142,-0.97547 -1.23605,-1.69039 z m -4.44941,-1.673 c -0.17392,-0.45322 -0.70783,-0.82403 -1.18647,-0.82403 -0.70506,0 -0.66783,0.15311 0.19611,0.80656 1.3423,1.01526 1.37346,1.01581 0.99036,0.0175 z m 1.99877,0.58178 c 0,-0.13324 -0.24721,-0.39504 -0.54936,-0.58178 -0.30215,-0.18673 -0.54936,-0.0777 -0.54936,0.24226 0,0.31998 0.24721,0.58178 0.54936,0.58178 0.30215,0 0.54936,-0.10902 0.54936,-0.24226 z m -4.8435,-1.52484 c -0.3942,-0.3942 -0.65008,-0.42663 -0.65008,-0.0824 0,0.73328 0.64968,1.38295 1.01632,1.01631 0.15611,-0.1561 -0.009,-0.57636 -0.36624,-0.9339 z m 47.36503,28.78308 c -2.39153,-1.15638 -3.72734,-2.22706 -4.66954,-3.74274 -1.28666,-2.06978 -1.31973,-2.41902 -1.31973,-13.93417 l 0,-11.81118 3.16628,-0.16498 c 4.04886,-0.21096 4.14894,0.0357 3.84277,9.46951 -0.12809,3.9469 -0.0694,8.48732 0.1304,10.08981 0.3252,2.60804 0.55401,3.00457 2.18172,3.78076 2.35498,1.12302 5.51063,0.59152 6.45456,-1.08711 0.44357,-0.78881 0.78178,-4.85919 0.96805,-11.6502 l 0.28629,-10.43779 3.29614,0 3.29615,0 0,11.85287 0,11.85286 -1.47449,2.22653 c -1.82666,2.75834 -5.38648,4.5715 -9.65785,4.91912 -2.6793,0.21806 -3.65237,0.014 -6.50075,-1.36329 z m 9.82239,-2.49878 c 0.97227,-0.41428 2.3858,-1.42239 3.14116,-2.24024 1.34989,-1.46156 1.37595,-1.66252 1.52287,-11.74465 0.10113,-6.93894 -0.0273,-9.99103 -0.39686,-9.4336 -0.31137,0.46964 -0.51658,4.4868 -0.47715,9.34059 0.0567,6.97843 -0.0965,8.83705 -0.84849,10.29115 -1.23547,2.38913 -3.4819,3.44127 -7.3475,3.44127 -2.73032,0 -3.48947,-0.23577 -5.10883,-1.58668 l -1.90201,-1.58668 -0.17117,-9.81248 c -0.0942,-5.39687 -0.40316,-10.04734 -0.6867,-10.33438 -0.32137,-0.32534 -0.51552,3.05716 -0.51552,8.98137 0,7.74865 0.16981,9.8611 0.9197,11.44139 1.62228,3.4187 7.61545,5.05599 11.8705,3.24294 z m -13.71337,-25.13161 c 0.35667,-0.0358 0.87574,-0.0218 1.1535,0.031 0.27775,0.0529 0.18568,-0.28871 -0.2046,-0.75898 -0.39029,-0.47027 -1.02133,-0.85503 -1.40231,-0.85503 -0.85453,0 -1.42574,1.98211 -0.92557,3.21179 0.30129,0.74075 0.40279,0.68028 0.54999,-0.32767 0.0993,-0.67983 0.47232,-1.26532 0.82899,-1.3011 z m 35.91025,28.6192 c -4.18659,-0.7216 -7.62171,-3.2866 -8.67478,-6.47744 -0.55633,-1.68568 -0.50971,-2.02733 0.36373,-2.666 1.39873,-1.02278 5.42828,-0.9413 6.31547,0.1277 1.30862,1.57679 3.89641,2.5665 5.87224,2.24586 2.40209,-0.3898 3.43677,-1.25585 3.43677,-2.87666 0,-1.42088 -1.15975,-1.86483 -7.60891,-2.91265 -3.63928,-0.59128 -6.64498,-2.35056 -7.8442,-4.59131 -0.87322,-1.63164 -0.79833,-6.46811 0.12997,-8.39323 0.42084,-0.87275 1.80817,-2.38106 3.08293,-3.35179 5.9478,-4.52922 17.03512,-1.93319 18.75324,4.39095 0.64168,2.36196 -0.11483,3.09207 -3.20393,3.09207 -2.01118,0 -2.93461,-0.31075 -4.08122,-1.3734 -2.70583,-2.50768 -8.0176,-1.48653 -8.0176,1.54133 0,1.41498 2.18307,2.50349 6.14666,3.0648 7.57145,1.07225 10.55738,3.62418 10.49291,8.96778 -0.0443,3.67069 -1.53154,5.89598 -5.13217,7.67893 -3.49351,1.72991 -6.35328,2.16698 -10.03111,1.53306 z m 6.8661,-3.30285 c 4.64969,-1.29142 6.49717,-6.97945 3.27087,-10.07044 -1.25403,-1.20144 -2.5034,-1.65629 -6.1874,-2.25266 -5.55985,-0.90002 -7.30617,-1.63214 -8.11206,-3.40088 -0.96425,-2.11628 -0.72149,-3.81687 0.80356,-5.62929 2.63206,-3.12803 7.56788,-3.50706 11.44114,-0.87859 2.05622,1.39538 2.70738,1.10707 0.99653,-0.44123 -5.66694,-5.12851 -15.84433,-1.27434 -14.62936,5.54012 0.67481,3.78479 2.98208,5.12504 10.13984,5.89001 4.04718,0.43254 6.13023,2.05004 6.13023,4.76017 0,1.0857 -0.26339,2.46614 -0.5853,3.06764 -1.61524,3.01809 -8.85911,3.90238 -12.38221,1.51154 -2.36491,-1.60488 -2.60079,-1.66241 -2.16554,-0.52816 0.91377,2.38124 6.85217,3.66148 11.2797,2.43177 z m 6.76494,-2.72765 c 0.18674,-0.30215 0.0923,-0.54936 -0.20984,-0.54936 -0.30215,0 -0.70214,0.24721 -0.88888,0.54936 -0.18673,0.30215 -0.0923,0.54936 0.20984,0.54936 0.30215,0 0.70214,-0.24721 0.88888,-0.54936 z m -18.95283,-19.56096 c 0,-1.1418 -0.92905,-0.92401 -1.24714,0.29235 -0.19402,0.74194 -0.0492,0.97035 0.48528,0.76526 0.41903,-0.16079 0.76186,-0.63671 0.76186,-1.05761 z m 2.16081,-2.21605 c 0.13093,-0.11858 0.007,-0.43081 -0.27468,-0.69385 -0.29875,-0.27865 -0.97128,-0.0183 -1.61145,0.62392 l -1.09871,1.10217 1.37339,-0.40833 c 0.75537,-0.22458 1.48052,-0.50534 1.61145,-0.62391 z m -57.58788,27.0658 c -0.44189,-0.53243 -0.58278,-5.01413 -0.47929,-15.24467 l 0.1466,-14.49052 3.57082,0 3.57083,0 0.27467,11.34591 c 0.26026,10.75 0.22338,11.31841 -0.70208,10.82224 -0.53722,-0.28801 -0.80803,-0.79667 -0.60182,-1.13034 0.21139,-0.34202 0.1259,-0.45275 -0.19595,-0.25384 -0.8176,0.50531 -1.17585,3.63788 -0.46864,4.09789 1.06405,0.69211 3.61657,0.49918 3.61657,-0.27335 0,-0.51791 -0.42622,-0.62543 -1.45533,-0.36714 -1.02422,0.25706 -1.34009,0.1788 -1.0663,-0.26421 0.25176,-0.40736 2.39226,-0.62948 6.0661,-0.62948 6.1894,0 6.34396,0.0823 6.34396,3.3772 0,3.66998 -0.24005,3.76445 -9.56582,3.76445 -6.47458,0 -8.57353,-0.17482 -9.05432,-0.75414 z m 4.8862,-0.60879 c 0,-0.44746 -0.61802,-0.96868 -1.37339,-1.15827 -1.42924,-0.35871 -1.46828,-0.48529 -1.4674,-4.75778 3.3e-4,-1.61519 -0.2433,-2.61266 -0.63942,-2.61786 -0.46148,-0.006 -0.4529,-0.12727 0.0308,-0.43458 0.39396,-0.2503 0.59465,-1.27406 0.48636,-2.48092 -0.22385,-2.49461 -0.51304,-2.85263 -1.42075,-1.75891 -0.53342,0.64274 -0.54542,1.01745 -0.0516,1.61244 0.42116,0.50746 0.4516,0.89362 0.0882,1.11823 -0.31705,0.19595 -0.52241,2.46127 -0.47883,5.28174 0.0718,4.64387 0.15063,4.95728 1.32128,5.25109 0.68473,0.17186 1.54442,0.12739 1.91043,-0.0988 0.42344,-0.2617 0.5229,-0.18061 0.27348,0.22296 -0.23224,0.37582 -0.043,0.63424 0.46451,0.63424 0.47105,0 0.85645,-0.36611 0.85645,-0.81357 z m 4.48674,0.26326 c 0.11912,-0.35735 0.80673,-0.37154 1.96112,-0.0405 1.09065,0.31279 1.89924,0.31316 2.09219,0.001 0.17299,-0.27989 -0.009,-0.52839 -0.4046,-0.55221 -0.39552,-0.0239 -2.13353,-0.13524 -3.86225,-0.24758 -1.72873,-0.11234 -3.28664,0.0279 -3.46202,0.31171 -0.18029,0.29171 0.0908,0.35874 0.62381,0.15422 0.63957,-0.24543 0.81496,-0.15509 0.54546,0.28097 -0.26242,0.42461 0.0643,0.64271 0.96282,0.64271 0.74802,0 1.44258,-0.24764 1.54347,-0.5503 z m 5.6438,-2.72347 c -0.28984,-0.28984 -2.8732,-0.59886 -5.74078,-0.68669 l -5.21379,-0.15971 -0.14849,-11.39916 c -0.0908,-6.97479 -0.35738,-11.39916 -0.68669,-11.39916 -0.58773,0 -0.77933,21.80545 -0.20476,23.30275 0.27634,0.72012 1.3773,0.86897 6.42748,0.86897 3.89027,0 5.90345,-0.19058 5.56703,-0.527 z m -8.60836,-9.25843 c 0.1196,-0.3588 -0.0649,-0.65236 -0.4101,-0.65236 -0.34516,0 -0.48782,0.2261 -0.31704,0.50243 0.17079,0.27634 0.0556,0.62862 -0.25599,0.78284 -0.31158,0.15422 -0.26677,0.22169 0.0996,0.14992 0.36635,-0.0718 0.76396,-0.42403 0.88355,-0.78283 z m -0.42346,-2.30043 c -0.66066,-1.23445 -1.16947,-1.45252 -0.96138,-0.41202 0.11976,0.59877 0.93459,1.47772 1.39272,1.50232 0.0862,0.004 -0.10793,-0.48601 -0.43134,-1.0903 z m -4.39486,-1.64808 c 0,-0.30214 -0.2618,-0.54935 -0.58178,-0.54935 -0.31998,0 -0.42899,0.24721 -0.24225,0.54935 0.18673,0.30215 0.44853,0.54936 0.58178,0.54936 0.13324,0 0.24225,-0.24721 0.24225,-0.54936 z m 84.189,16.66625 c -0.51779,-0.20894 -0.68669,-3.02783 -0.68669,-11.46071 0,-6.15099 -0.2174,-11.31798 -0.48311,-11.4822 -0.26571,-0.16421 -1.77162,-0.39922 -3.34647,-0.52223 -1.57485,-0.12301 -3.10288,-0.46318 -3.39563,-0.75592 -0.29274,-0.29274 -0.4555,-1.741 -0.36169,-3.21835 l 0.17057,-2.68609 10.64161,-0.14944 c 7.38455,-0.10369 10.87346,0.043 11.39916,0.47929 1.06365,0.88275 0.95904,4.60909 -0.16084,5.72896 -0.69133,0.69133 -1.45356,0.83283 -3.08286,0.57229 -3.64715,-0.5832 -3.68974,-0.44676 -3.68974,11.82031 0,10.21481 -0.0668,10.93632 -1.0626,11.46924 -1.08436,0.58033 -4.70207,0.70506 -5.94171,0.20485 z m 5.93461,-1.04452 c 0.48337,-0.58243 0.49463,-0.98216 0.043,-1.52632 -0.33652,-0.40548 -0.45254,-0.89656 -0.25782,-1.09128 0.52491,-0.52492 0.53515,-11.96453 0.011,-12.28829 -0.24721,-0.15268 -0.29436,-0.68523 -0.10479,-1.18342 0.23486,-0.61723 0.16507,-0.72782 -0.21907,-0.34714 -0.47009,0.46585 -0.67439,3.12887 -0.56824,7.40701 0.0385,1.55209 -0.50958,6.05061 -0.87901,7.21459 -0.28006,0.8824 -0.18918,1.06095 0.37632,0.7393 0.6031,-0.34305 0.6136,-0.28198 0.0549,0.31967 -0.57982,0.62443 -0.81939,0.61498 -1.49325,-0.0589 -0.44145,-0.44144 -0.87231,-1.41969 -0.95745,-2.17388 -0.14103,-1.24912 -0.79023,-2.1653 -1.5496,-2.18688 -0.49592,-0.0141 -0.44398,4.0513 0.064,5.00817 0.61167,1.15224 4.56247,1.27289 5.47998,0.16736 z m -2.22645,-13.36552 c 0,-12.99318 -0.33166,-12.14464 4.74689,-12.14464 1.86608,0 2.88,-0.20865 2.66944,-0.54935 -0.45262,-0.73236 -15.47874,-0.73236 -15.93136,0 -0.21159,0.34236 0.87327,0.54935 2.87917,0.54935 1.77095,0 3.51521,0.29652 3.87792,0.65923 0.46944,0.46944 0.65923,3.86992 0.65923,11.81118 0,7.0684 0.20116,11.15196 0.54936,11.15196 0.34871,0 0.54935,-4.19215 0.54935,-11.47773 z m -1.92275,7.63222 c 0.18674,-0.30214 -0.0605,-0.54935 -0.54935,-0.54935 -0.48889,0 -0.7361,0.24721 -0.54936,0.54935 0.18674,0.30215 0.43395,0.54936 0.54936,0.54936 0.11541,0 0.36262,-0.24721 0.54935,-0.54936 z m -0.42346,-1.43061 c -0.18254,-0.18255 -0.65637,-0.20207 -1.05293,-0.0434 -0.43824,0.17537 -0.30807,0.30554 0.3319,0.3319 0.57911,0.0238 0.90358,-0.10599 0.72103,-0.28853 z m 0.42346,-5.16167 c 0.18674,-0.30215 -0.0459,-0.54936 -0.51693,-0.54936 -0.47105,0 -0.85646,0.24721 -0.85646,0.54936 0,0.30214 0.23262,0.54935 0.51693,0.54935 0.28432,0 0.66973,-0.24721 0.85646,-0.54935 z m -0.27467,-4.23323 c 0,-1.28122 -1.36678,-0.47174 -1.43598,0.85047 -0.0497,0.95021 0.0913,1.06807 0.6867,0.57393 0.4121,-0.34202 0.74928,-0.983 0.74928,-1.4244 z m 17.33496,17.09486 c -0.76021,-0.76021 -0.85349,-2.71921 -0.72593,-15.24467 l 0.14636,-14.37236 9.33908,0 9.33907,0 0.16487,2.85007 c 0.20749,3.58689 -0.36702,3.95055 -6.05229,3.83096 -4.89651,-0.103 -5.88527,0.44369 -5.05072,2.79255 0.57184,1.6095 0.36606,1.55834 6.89652,1.71424 3.57546,0.0854 3.91309,0.50248 3.40531,4.20711 l -0.33707,2.45918 -4.48499,0 c -4.87044,0 -5.80346,0.4416 -5.80346,2.74679 0,2.32816 0.92097,2.74678 6.04293,2.74678 2.94212,0 4.97318,0.2487 5.38371,0.65923 0.36257,0.36258 0.65922,1.6728 0.65922,2.9116 0,1.2388 -0.29665,2.54901 -0.65922,2.91159 -0.45502,0.45502 -3.2508,0.65923 -9.02516,0.65923 -6.90964,0 -8.51777,-0.15184 -9.23823,-0.8723 z m 6.08139,-0.22642 c 0.7176,0 1.30472,-0.21838 1.30472,-0.48528 0,-0.68182 -2.13129,-1.16488 -2.5009,-0.56683 -0.54967,0.88938 -3.26645,-2.18604 -3.28663,-3.7205 -0.0106,-0.80646 -0.31962,-1.5664 -0.68669,-1.68876 -0.94331,-0.31444 -0.92431,6.25854 0.0193,6.66729 0.37768,0.16361 1.39743,0.18421 2.2661,0.0458 0.86866,-0.13841 2.16652,-0.25168 2.88412,-0.25168 z m 4.05151,-0.49058 c 0,-0.58606 -1.68253,-1.30615 -2.09294,-0.89574 -0.15818,0.15819 0.0154,0.28761 0.38573,0.28761 0.37034,0 0.52055,0.24721 0.33382,0.54936 -0.18674,0.30214 0.0459,0.54935 0.51693,0.54935 0.47105,0 0.85646,-0.22076 0.85646,-0.49058 z m 4.94421,-1.70684 c 0.6353,-0.41057 0.44656,-0.54021 -0.82403,-0.56605 -8.41577,-0.17112 -9.68432,-0.30634 -10.17643,-1.08477 -0.57457,-0.90885 -0.72886,-8.19463 -0.20258,-9.56608 0.26924,-0.70164 1.26793,-0.86896 5.18647,-0.86896 2.66916,0 5.0058,-0.24722 5.19254,-0.54936 0.21659,-0.35045 -1.42263,-0.54936 -4.52724,-0.54936 -3.05279,0 -5.11248,-0.24571 -5.526,-0.65923 -0.87496,-0.87496 -0.87496,-8.24437 0,-9.11933 0.41822,-0.41822 2.52704,-0.65923 5.76825,-0.65923 3.03978,0 5.10902,-0.2225 5.10902,-0.54935 0,-0.81706 -11.15137,-0.71475 -11.97598,0.10987 -0.69407,0.69407 -0.96886,20.37888 -0.31835,22.80526 0.29928,1.11632 0.71339,1.2304 5.07405,1.39777 2.6115,0.10023 5.11899,0.22929 5.57221,0.28679 0.45322,0.0575 1.19485,-0.13508 1.64807,-0.42797 z m -7.2086,-2.14443 c 0.88635,-0.5614 0.35741,-1.70108 -0.7895,-1.70108 -0.57349,0 -0.79161,-0.6901 -0.79161,-2.50453 0,-1.63636 -0.20341,-2.37881 -0.58681,-2.14186 -0.32275,0.19947 -0.46105,0.69041 -0.30733,1.09098 0.15371,0.40056 -0.0512,1.00267 -0.4552,1.33802 -0.88063,0.73086 -0.49745,2.77042 0.70043,3.72813 1.01046,0.80787 1.22602,0.82626 2.23002,0.19034 z m 4.18714,-0.053 c -0.18674,-0.30215 -0.75755,-0.54557 -1.26848,-0.54095 -0.80056,0.007 -0.81506,0.082 -0.10491,0.54095 1.07584,0.69527 1.80309,0.69527 1.37339,0 z m -10.47611,-5.35623 c -0.0637,-1.4352 -0.1429,-3.33048 -0.17606,-4.21174 -0.10638,-2.82679 -0.6523,-1.12544 -0.93367,2.90976 -0.21406,3.07006 -0.11159,3.91142 0.47638,3.91142 0.54369,0 0.71737,-0.71557 0.63335,-2.60944 z m 5.00513,-2.84758 c -0.19917,-0.32225 -0.60448,-0.58591 -0.90071,-0.58591 -0.29623,0 -0.21983,0.34589 0.16976,0.76863 0.78869,0.8558 1.29462,0.72933 0.73095,-0.18272 z m 8.34366,-3.6646 c -0.18254,-0.18254 -0.65637,-0.20206 -1.05293,-0.0434 -0.43824,0.17538 -0.30807,0.30555 0.3319,0.33191 0.57911,0.0238 0.90358,-0.10599 0.72103,-0.28853 z m -1.84672,-0.64908 c 0.14672,-0.23741 -0.19136,-0.43165 -0.75128,-0.43165 -0.55993,0 -0.898,0.19424 -0.75128,0.43165 0.14672,0.23739 0.4848,0.43163 0.75128,0.43163 0.26648,0 0.60456,-0.19424 0.75128,-0.43163 z m 3.86986,-9.99961 c -0.35751,-0.35752 -0.57301,-0.14203 -0.63125,0.63125 -0.0666,0.88426 0.0674,1.01825 0.54281,0.54282 0.41577,-0.41577 0.44596,-0.81656 0.0884,-1.17407 z m 8.12395,27.35145 c -0.4785,-0.47851 -0.65923,-4.52641 -0.65923,-14.76539 0,-11.72455 0.136,-14.21902 0.80553,-14.77468 0.57635,-0.47833 3.03788,-0.61166 8.65237,-0.46866 8.84956,0.22541 10.18333,0.65451 12.83442,4.12908 1.35716,1.77873 1.62708,2.69601 1.80015,6.11762 0.19641,3.88278 0.1324,4.12853 -1.81002,6.94883 l -2.01363,2.9237 2.82099,4.70383 c 1.55155,2.58711 2.66232,4.96057 2.46839,5.27436 -0.49746,0.80491 -7.02779,0.71183 -8.15069,-0.11616 -0.51219,-0.37769 -1.8573,-2.275 -2.98912,-4.21625 -1.42561,-2.44517 -2.52768,-3.68477 -3.58706,-4.03478 -2.43606,-0.80484 -3.14033,0.21588 -3.14033,4.55136 0,2.88488 -0.19498,3.79428 -0.86897,4.05291 -1.49617,0.57414 -5.47312,0.36391 -6.1628,-0.32577 z m 18.01891,-2.12171 c 0,-0.28336 -0.2618,-0.51521 -0.58178,-0.51521 -0.31997,0 -0.42794,-0.2489 -0.23993,-0.5531 0.18801,-0.30422 -0.13579,-1.23126 -0.71955,-2.06009 -0.58375,-0.82885 -1.23857,-2.07738 -1.45513,-2.77451 -0.50042,-1.61086 -4.31864,-3.35606 -4.9847,-2.27837 -0.16195,0.26204 -0.65735,0.33718 -1.1009,0.16698 -0.44888,-0.17226 -0.80644,5.5e-4 -0.80644,0.39023 0,0.38483 0.14463,0.55507 0.32138,0.37831 0.17676,-0.17676 1.0201,-0.0778 1.87409,0.2199 1.43889,0.5016 3.12647,2.5835 4.85069,5.9841 0.67481,1.33091 2.84227,2.12534 2.84227,1.04176 z m 3.29615,0.002 c 0,-0.31998 0.24388,-0.43105 0.54196,-0.24683 0.58775,0.36325 0.52568,0.1982 -1.82032,-4.84071 l -1.48855,-3.19721 1.21682,-1.70886 c 0.72635,-1.02007 0.89648,-1.54174 0.42208,-1.29425 -0.43711,0.22804 -0.36212,0.06 0.16663,-0.37338 0.52876,-0.4334 0.94186,-1.13156 0.91801,-1.55147 -0.0317,-0.55765 -0.11805,-0.57834 -0.32046,-0.0767 -0.1524,0.37769 -0.62731,0.6867 -1.05534,0.6867 -0.42805,0 -0.77826,0.2135 -0.77826,0.47445 0,0.26094 -0.62177,1.09621 -1.38171,1.85615 -1.28001,1.28001 -1.40077,2.7685 -0.30118,3.71233 0.17601,0.15107 0.80648,1.20172 1.40106,2.33477 0.59457,1.13305 1.27203,2.06009 1.50547,2.06009 0.23344,0 0.42443,0.24721 0.42443,0.54936 0,1.42878 -1.1922,0.21845 -3.11152,-3.15881 -1.15906,-2.03949 -2.19233,-3.90123 -2.29617,-4.13721 -0.10384,-0.23598 0.86052,-1.36024 2.14302,-2.49836 2.11183,-1.87408 2.35279,-2.35188 2.55415,-5.06452 0.17231,-2.32141 -0.0258,-3.39015 -0.88074,-4.75078 -1.96888,-3.13352 -3.35416,-3.65502 -9.65006,-3.63288 -3.10832,0.0109 -5.92959,0.19175 -6.26948,0.40181 -0.42694,0.26386 -0.61799,4.05721 -0.61799,12.27057 0,7.50083 0.19243,11.69602 0.52138,11.36674 0.28676,-0.28704 0.59578,-2.25236 0.6867,-4.36739 l 0.16531,-3.8455 4.80731,-0.15873 4.80731,-0.15874 2.13193,3.45488 c 3.16176,5.12378 5.55821,7.66524 5.55821,5.89456 z m -17.31755,-11.64134 c -0.16963,-0.67983 -0.23614,-3.70817 -0.14781,-6.72963 l 0.1606,-5.49357 4.38637,-0.16277 c 7.42516,-0.27553 10.72096,1.80109 10.72096,6.75505 0,2.79416 -1.40272,5.17245 -3.58967,6.08621 -1.1184,0.4673 -3.74623,0.78076 -6.54533,0.78076 -4.39231,0 -4.69547,-0.0752 -4.98512,-1.23605 z m 7.24486,-0.0195 c 0.35187,-0.21969 0.76595,-0.1445 0.92017,0.16709 0.15422,0.31157 0.21449,0.25132 0.13392,-0.13392 -0.0971,-0.4644 -1.00481,-0.66624 -2.69362,-0.59897 -1.40094,0.0558 -2.51329,-0.0678 -2.4719,-0.27467 0.16605,-0.82994 -0.81245,-2.2989 -1.53134,-2.2989 -1.27319,0 -0.8985,2.42571 0.47079,3.04785 1.40423,0.63801 4.21693,0.68779 5.17198,0.0915 z m 3.11897,-0.63928 c 0.20417,-0.53207 0.0415,-0.69476 -0.49058,-0.49059 -0.86894,0.33344 -1.09525,1.28664 -0.30548,1.28664 0.26982,0 0.62805,-0.35822 0.79606,-0.79605 z m 0.45551,-2.31056 c 1.34198,-1.21447 1.3039,-4.14328 -0.07,-5.38667 -1.08757,-0.98423 -5.8458,-1.38685 -7.11558,-0.60208 -0.64399,0.39801 -0.84129,5.92363 -0.23322,6.53169 0.7844,0.78441 6.40681,0.37294 7.41884,-0.54294 z m 0.0432,-7.14565 c -0.37768,-0.15239 -0.99571,-0.15239 -1.37339,0 -0.37769,0.1524 -0.0687,0.27709 0.68669,0.27709 0.75537,0 1.06438,-0.12469 0.6867,-0.27709 z m -8.82533,18.28082 c 0.34896,0.21566 0.33598,-0.0691 -0.0347,-0.76171 -0.48746,-0.91083 -0.3759,-1.25331 0.63189,-1.93995 1.12026,-0.76326 1.15011,-0.91009 0.35263,-1.73455 -0.78503,-0.81159 -0.94116,-0.81644 -1.578,-0.0491 -0.60397,0.72774 -0.51721,0.85702 0.59655,0.88879 1.27644,0.0364 1.27952,0.0487 0.14952,0.5966 -0.80218,0.38894 -1.16037,1.0891 -1.17539,2.29759 -0.0119,0.95599 0.0958,1.42761 0.23935,1.04804 0.14351,-0.37956 0.51169,-0.53514 0.81818,-0.34572 z m 14.73092,-19.0157 c 0,-0.30215 -0.2618,-0.54936 -0.58178,-0.54936 -0.31998,0 -0.42899,0.24721 -0.24226,0.54936 0.18674,0.30214 0.44854,0.54936 0.58178,0.54936 0.13324,0 0.24226,-0.24722 0.24226,-0.54936 z m -1.53264,-1.75239 c -0.35952,-0.35951 -1.04078,-0.71048 -1.51392,-0.77992 -0.6836,-0.10033 -0.72734,0.0339 -0.21298,0.65367 0.35601,0.42896 1.03727,0.77992 1.51392,0.77992 0.66997,0 0.7183,-0.14834 0.21298,-0.65367 z"
       id="path4384-7-7"
       inkscape:connector-curvature="0" />
    <path
       style="fill:#d8102c;fill-opacity:1"
       d="m 364.37352,711.74569 c -0.60941,-1.13871 -0.82244,-26.75282 -0.23523,-28.28308 0.42778,-1.11479 6.36546,-1.24034 7.26731,-0.15367 0.32651,0.39342 0.66579,2.92733 0.75396,5.63091 l 0.16032,4.91561 1.64807,-0.12036 c 3.82929,-0.27967 5.76825,-2.70037 5.76825,-7.20142 0,-3.47393 0.70544,-4.0417 4.76053,-3.8315 l 3.20515,0.16614 0.18462,2.4721 c 0.31228,4.18152 -0.81865,7.86982 -3.26538,10.64944 -1.8775,2.13296 -2.10947,2.66093 -1.59304,3.62588 0.33243,0.62117 0.4312,1.40969 0.21947,1.75228 -0.22202,0.35923 -0.14132,0.4723 0.19065,0.26713 0.83079,-0.51346 7.06988,9.96007 6.35755,10.6724 -0.30509,0.30509 -2.26068,0.48077 -4.34576,0.39039 l -3.79104,-0.16433 -2.58476,-4.39486 c -3.76317,-6.39852 -4.22008,-6.95337 -5.56783,-6.76134 -1.10056,0.15681 -1.19809,0.52501 -1.3468,5.08466 -0.0882,2.70358 -0.42745,5.23749 -0.75396,5.63092 -0.35202,0.42415 -1.78821,0.7153 -3.52852,0.7153 -2.33937,0 -3.05025,-0.21561 -3.50356,-1.0626 z m 24.46556,-0.90778 c -0.30855,-1.70156 -1.34983,-3.07703 -2.01719,-2.66458 -0.26445,0.16344 -0.33359,-0.0865 -0.15366,-0.55541 0.21383,-0.55722 0.0147,-0.85256 -0.57497,-0.85256 -0.73191,0 -0.79119,0.20732 -0.31413,1.09871 0.32341,0.6043 0.82653,1.09872 1.11804,1.09872 0.29152,0 0.53003,0.26179 0.53003,0.58178 0,0.31998 -0.24721,0.42899 -0.54935,0.24225 -0.60506,-0.37395 -0.76969,1.5193 -0.18312,2.10587 0.20143,0.20143 0.82429,0.36624 1.38413,0.36624 0.79503,0 0.96148,-0.31113 0.76022,-1.42102 z m -1.41188,0.35473 c 0,-0.28432 0.24438,-0.66798 0.54307,-0.85257 0.31141,-0.19246 0.4035,0.0281 0.2159,0.51693 -0.3652,0.95172 -0.75897,1.12585 -0.75897,0.33564 z m -18.80132,-7.76592 0.39785,-5.1764 3.49679,-0.1652 c 4.2342,-0.20003 4.60476,0.0743 8.05971,5.96756 2.50313,4.26965 4.77174,6.97364 3.89614,4.64385 -0.22538,-0.59966 -1.79917,-3.29227 -3.49732,-5.98357 l -3.08756,-4.89328 2.25023,-1.98211 c 1.23763,-1.09016 2.61229,-2.72374 3.05482,-3.63018 1.11854,-2.29113 1.74493,-6.31761 0.98281,-6.31761 -0.32871,0 -0.59903,0.43262 -0.60071,0.96138 -0.0117,3.65594 -2.73431,7.97075 -5.85139,9.27315 -1.91005,0.79807 -8.20795,1.15662 -8.86014,0.50443 -0.21597,-0.21597 -0.44828,-2.75558 -0.51624,-5.64357 -0.068,-2.88799 -0.25338,-5.38072 -0.41204,-5.53938 -0.15867,-0.15867 -0.26897,5.25316 -0.24512,12.02627 0.0239,6.77312 0.15383,12.04842 0.28884,11.72291 0.13501,-0.32552 0.42451,-2.92123 0.64333,-5.76825 z m -2.57857,-16.35407 c -0.37669,-0.70385 -0.34055,-1.24251 0.11801,-1.75891 0.54883,-0.61806 0.50671,-0.62827 -0.24826,-0.0602 -0.74179,0.5582 -0.901,1.40624 -0.50618,2.69629 0.0231,0.0755 0.29794,0.13734 0.61072,0.13734 0.38273,0 0.39113,-0.33176 0.0257,-1.01456 z m 2.55296,-2.61349 c -0.18254,-0.18254 -0.65637,-0.20206 -1.05293,-0.0433 -0.43824,0.17537 -0.30807,0.30554 0.3319,0.3319 0.57911,0.0238 0.90358,-0.10599 0.72103,-0.28853 z m 24.87975,27.26888 c -0.31867,-0.59544 -0.42225,-2.05513 -0.23078,-3.25246 0.2802,-1.75229 0.6261,-2.24218 1.78938,-2.53413 2.0601,-0.51706 2.2649,-1.09966 2.2205,-6.31774 -0.064,-7.46735 -0.5375,-9.81708 -2.1409,-10.61274 -1.18935,-0.5902 -1.37341,-1.04747 -1.37341,-3.41209 l 0,-2.73056 7.14161,0 7.1417,0 0.1638,2.82113 c 0.1573,2.7078 0.097,2.8446 -1.5107,3.40491 -1.4506,0.5057 -1.6833,0.86309 -1.7397,2.67243 -0.05,1.59363 -0.011,11.01729 0.055,13.42828 0,0.19385 0.687,0.52247 1.5149,0.73025 1.8819,0.47233 2.3213,1.15329 2.3319,3.61429 0.013,3.04115 -0.5471,3.26868 -8.0478,3.26868 -6.1372,0 -6.78934,-0.0963 -7.31593,-1.08025 z m 7.4532,-0.1056 c 0.2222,0.199 0.2262,0.0528 0.01,-0.32489 -0.2204,-0.38294 -1.4484,-0.68669 -2.7761,-0.68669 -1.6096,0 -2.4834,-0.26696 -2.6972,-0.82404 -0.3238,-0.84393 0.4689,-1.17088 0.9503,-0.39194 0.3573,0.57815 6.7587,0.80688 8.2386,0.29438 1.0113,-0.35025 0.908,-0.4472 -0.7498,-0.70369 l -1.9228,-0.29746 -0.2747,-4.66954 c -0.1511,-2.56824 -0.1983,-7.57426 -0.105,-11.12448 l 0.1696,-6.45495 1.6158,0 c 0.8887,0 1.6158,-0.24721 1.6158,-0.54936 0,-0.31779 -1.7505,-0.54936 -4.1526,-0.54936 -2.6286,0 -4.028,0.20163 -3.8131,0.54936 0.1867,0.30215 0.9165,0.54936 1.6217,0.54936 0.7052,0 1.4323,0.39103 1.6156,0.86897 0.1835,0.47793 0.3335,5.26827 0.3335,10.64519 0,10.6933 -0.1684,11.27962 -3.1256,10.88049 l -1.5439,-0.2084 1.5107,-0.64174 c 1.5106,-0.6417 1.9966,-1.95186 0.9614,-2.59169 -1.002,-0.61926 -1.7584,0.3039 -0.9989,1.21907 0.6157,0.74182 0.4895,0.79977 -1.0197,0.46829 -2.0951,-0.46016 -2.60977,0.19195 -2.1377,2.70843 0.2805,1.49519 0.6353,1.88832 1.8399,2.03869 0.8208,0.10247 2.1536,0.0171 2.9617,-0.18975 0.8082,-0.20683 1.6512,-0.21324 1.8735,-0.0142 z m -5.815,-3.75837 c 0,-0.30214 0.2472,-0.54936 0.5493,-0.54936 0.3022,0 0.5494,0.24722 0.5494,0.54936 0,0.30215 -0.2472,0.54936 -0.5494,0.54936 -0.3021,0 -0.5493,-0.24721 -0.5493,-0.54936 z m 4.2093,-4.5322 c -0.1524,-0.37768 -0.2771,-0.0687 -0.2771,0.6867 0,0.75537 0.1247,1.06438 0.2771,0.6867 0.1524,-0.37769 0.1524,-0.99571 0,-1.3734 z m -0.7787,-0.13733 c 0.1444,-0.75537 0.05,-1.3734 -0.2107,-1.3734 -0.2602,0 -0.4731,0.61803 -0.4731,1.3734 0,0.75536 0.095,1.37339 0.2106,1.37339 0.1159,0 0.3288,-0.61803 0.4732,-1.37339 z m 0.4149,-19.31342 c 0,-0.36644 -0.4686,-0.51273 -1.1073,-0.34571 -1.6182,0.42319 -1.7397,0.98098 -0.2137,0.98098 0.7266,0 1.321,-0.28587 1.321,-0.63527 z m 3.5708,-0.18877 c 0.1867,-0.30214 0.092,-0.54936 -0.2098,-0.54936 -0.3022,0 -0.7022,0.24722 -0.8889,0.54936 -0.1867,0.30215 -0.092,0.54936 0.2098,0.54936 0.3022,0 0.7022,-0.24721 0.8889,-0.54936 z m 12.4885,28.65733 c -0.5392,-0.3423 -0.6629,-3.71165 -0.5493,-14.96158 l 0.1466,-14.51978 1.2426,-0.17641 c 0.9538,-0.13541 2.9298,1.42832 8.5035,6.72963 3.9935,3.79832 7.4515,6.90603 7.6845,6.90603 0.3486,0 0.7521,-9.6052 0.4696,-11.18138 -0.225,-1.25605 0.6821,-2.55109 1.7764,-2.53585 0.9994,0.014 1.0539,0.10157 0.3275,0.52636 -1.5403,0.90079 -1.2401,6.84738 0.3156,6.2504 0.4187,-0.16065 0.6443,-0.5968 0.5014,-0.9692 -0.1429,-0.3724 -0.019,-1.27898 0.2745,-2.01463 0.3792,-0.94895 0.5445,1.40608 0.5692,8.10647 0.019,5.19419 -0.1738,9.57295 -0.4289,9.73057 -0.255,0.15762 -4.121,-3.22694 -8.591,-7.52124 -4.47,-4.29431 -8.4021,-7.80782 -8.738,-7.80782 -0.817,0 -1.1522,19.45508 -0.3491,20.2582 0.3837,0.38368 0.5624,-2.44082 0.5624,-8.88651 0,-6.61315 0.1848,-9.44894 0.6159,-9.44894 0.3387,0 3.4906,2.79321 7.0043,6.20715 8.4549,8.21499 9.5428,9.17485 10.3983,9.17485 0.5812,0 0.6913,-2.10571 0.555,-10.62156 -0.1206,-7.53467 0.01,-10.62137 0.4413,-10.6209 0.3362,3.5e-4 0.5001,0.42597 0.3642,0.9458 -0.4081,1.56058 0.9014,1.81056 1.4822,0.28295 0.7779,-2.04598 0.1801,-2.96866 -2.0928,-3.23032 -1.6431,-0.18915 -1.5587,-0.21996 0.4591,-0.16769 l 2.4721,0.064 0,14.83264 0,14.83265 -1.283,0.1817 c -1.0176,0.14412 -2.7843,-1.30487 -8.5402,-7.00431 -3.9914,-3.9523 -7.4312,-7.186 -7.644,-7.186 -0.2128,0 -0.3869,2.57962 -0.3869,5.73249 0,3.15286 -0.2411,6.36661 -0.5357,7.14164 -0.4824,1.26856 -0.8249,1.40832 -3.4335,1.40075 -1.5938,-0.004 -3.211,-0.20722 -3.5938,-0.4502 z m 1.2454,-1.73882 c 0.1867,-0.30215 0.078,-0.54936 -0.2423,-0.54936 -0.3199,0 -0.5817,0.24721 -0.5817,0.54936 0,0.30214 0.109,0.54936 0.2422,0.54936 0.1333,0 0.3951,-0.24722 0.5818,-0.54936 z m 4.0036,-2.82189 c -0.1372,-0.41144 -0.3862,-0.16242 -0.5804,0.58042 -0.239,0.91377 -0.1675,1.12826 0.2402,0.7206 0.3192,-0.31924 0.4723,-0.90469 0.3402,-1.30102 z m -4.2783,-2.70411 c 0,-0.28431 -0.2472,-0.51693 -0.5493,-0.51693 -0.3022,0 -0.5494,0.3854 -0.5494,0.85645 0,0.47105 0.2472,0.70367 0.5494,0.51694 0.3021,-0.18674 0.5493,-0.57214 0.5493,-0.85646 z m 0.3139,-2.24296 c 0,-0.54645 -0.2684,-1.09655 -0.5964,-1.22243 -0.328,-0.12589 -0.5964,0.32121 -0.5964,0.99355 0,0.67233 0.2684,1.22243 0.5964,1.22243 0.328,0 0.5964,-0.4471 0.5964,-0.99355 z m 22.7591,-14.20533 c 0,-0.30215 -0.2618,-0.54936 -0.5817,-0.54936 -0.32,0 -0.429,0.24721 -0.2423,0.54936 0.1867,0.30214 0.4485,0.54935 0.5818,0.54935 0.1332,0 0.2422,-0.24721 0.2422,-0.54935 z"
       id="path4397-4-1"
       inkscape:connector-curvature="0"
       sodipodi:nodetypes="cssscssscssccssscssscscsscsssscssssccsscsscscssscsscsscscsccsccccccccssssscccssccsssccccssssscsscssscscsscsssssscccssssscsccsssssscsscscsccscsssscscscscsscssssscsssccccsssssccccsssccsccsssssscssssscss" />
  </g>
</svg>
