<?xml version="1.0" encoding="UTF-8" standalone="no"?>
<!-- Created with Inkscape (http://www.inkscape.org/) -->

<svg
   xmlns:dc="http://purl.org/dc/elements/1.1/"
   xmlns:cc="http://creativecommons.org/ns#"
   xmlns:rdf="http://www.w3.org/1999/02/22-rdf-syntax-ns#"
   xmlns:svg="http://www.w3.org/2000/svg"
   xmlns="http://www.w3.org/2000/svg"
   xmlns:sodipodi="http://sodipodi.sourceforge.net/DTD/sodipodi-0.dtd"
   xmlns:inkscape="http://www.inkscape.org/namespaces/inkscape"
   width="26.138161mm"
   height="26.138161mm"
   viewBox="0 0 92.615529 92.615528"
   id="svg4233"
   version="1.1"
   inkscape:version="0.91 r13725"
   sodipodi:docname="logo_square.svg"
   inkscape:export-filename="/home/fuchur/logo_square.png"
   inkscape:export-xdpi="513.15002"
   inkscape:export-ydpi="513.15002">
  <defs
     id="defs4235" />
  <sodipodi:namedview
     id="base"
     pagecolor="#ffffff"
     bordercolor="#666666"
     borderopacity="1.0"
     inkscape:pageopacity="0.0"
     inkscape:pageshadow="2"
     inkscape:zoom="7.9195959"
     inkscape:cx="45.232647"
     inkscape:cy="44.712746"
     inkscape:document-units="px"
     inkscape:current-layer="layer1"
     showgrid="false"
     fit-margin-top="0"
     fit-margin-left="0"
     fit-margin-right="0"
     fit-margin-bottom="0"
     inkscape:window-width="1920"
     inkscape:window-height="1016"
     inkscape:window-x="0"
     inkscape:window-y="27"
     inkscape:window-maximized="1" />
  <metadata
     id="metadata4238">
    <rdf:RDF>
      <cc:Work
         rdf:about="">
        <dc:format>image/svg+xml</dc:format>
        <dc:type
           rdf:resource="http://purl.org/dc/dcmitype/StillImage" />
        <dc:title></dc:title>
      </cc:Work>
    </rdf:RDF>
  </metadata>
  <g
     inkscape:label="Layer 1"
     inkscape:groupmode="layer"
     id="layer1"
     transform="translate(-465.28747,-642.24569)">
    <g
       id="g4894"
       transform="translate(12,0)">
      <path
         sodipodi:nodetypes="csscsccsccsscccssccssssssccccsscscsscssssccccccc"
         inkscape:connector-curvature="0"
         id="path4243-7-1-7-4"
         d="m 495.79988,668.71668 c -7.80745,1.12617 -14.81808,4.73424 -20.4372,10.51816 -2.62688,2.70392 -4.5755,5.46276 -6.16047,8.72194 l -0.65538,1.34767 -0.19783,-0.24431 c -0.33618,-0.41516 -0.76608,-1.35384 -0.97104,-2.1202 -0.6555,-3.06216 -0.59463,-3.72073 -0.58967,-6.97193 0,-1.51232 0.30583,-3.0657 0.0994,-3.69536 -0.13033,-0.3976 -0.41037,-0.94458 -0.63672,-1.24364 l -0.78359,-1.48266 1.1333,1.0058 c 1.03517,0.91873 1.95818,0.96215 2.96979,2.38893 0.80386,1.13376 1.39545,1.10297 2.09774,1.17045 2.52459,-0.65031 1.43662,-3.58463 1.31143,-4.6211 -0.17146,-3.57914 1.3023,-8.26393 3.53763,-10.8509 0.63987,-0.71511 1.78408,-1.82393 1.78408,-1.7289 0,0.0286 -0.0937,0.26369 -0.20816,0.52251 -0.2414,0.54573 -0.42403,2.45765 -0.23782,3.01959 0.9471,0.6055 2.80636,1.20184 3.49881,-0.56093 0.74801,-0.79969 0.89216,-1.19121 1.65992,-4.50818 0.7112,-3.07258 1.84975,-4.61204 5.16589,-6.9849 3.26295,-2.33479 4.33074,-3.53278 4.80903,-5.39544 0.35273,-1.37362 -0.0176,-3.40042 -0.81141,-4.44118 -0.39243,-0.51452 -0.1353,-0.38081 0.48187,0.25057 1.47311,1.50703 2.16655,3.41801 2.06314,5.6856 -0.0641,1.40471 -1.0909,3.74862 -2.07774,5.58452 -1.46503,1.90114 -0.18786,5.55551 2.14342,5.19318 1.15756,-0.21839 5.18728,0.0657 6.06218,-1.75674 3.16371,-11.61944 9.38628,-9.04723 15.56705,-13.6286 -0.9386,1.9544 -1.63342,2.99255 -3.54113,5.29094 -2.06968,2.49351 -2.79043,3.62422 -3.30706,5.18812 -0.2802,0.84822 -0.31527,1.08453 -0.31994,2.15597 -0.006,1.38412 0.20541,2.30851 0.79829,3.48985 1.07546,2.14295 3.03055,3.46909 5.12708,3.47774 0.57055,0.002 1.82258,-0.40713 2.4231,-0.79249 1.91011,-1.22571 2.71663,-3.65597 1.63851,-4.93725 l -0.262,-0.31136 0.24555,0.0746 c 0.47047,0.14287 1.21649,0.5962 1.46274,0.88884 0.98789,1.17405 1.2297,2.92328 0.88236,6.38305 -0.3436,3.42268 -0.774,5.37484 2.80823,9.39729 2.19552,2.46531 3.78591,5.56856 5.48847,8.71963 9.4455,27.25278 -3.10061,-18.60493 -33.63135,-15.05991 z m 27.99682,-1.85522 c 0.0791,-7.44565 5.74114,-5.70373 5.85334,-11.70625 5.01153,8.02308 -3.11635,14.10181 -2.20329,18.69757 -1.31011,-1.64441 -3.63941,-5.30129 -3.65005,-6.99132 z"
         style="fill:#d8102c;fill-opacity:1" />
      <circle
         r="32.897404"
         cy="699.78363"
         cx="500.36505"
         id="path4169-8-2-8-6"
         style="color:#000000;clip-rule:nonzero;display:inline;overflow:visible;visibility:visible;opacity:1;isolation:auto;mix-blend-mode:normal;color-interpolation:sRGB;color-interpolation-filters:linearRGB;solid-color:#000000;solid-opacity:1;fill:none;fill-opacity:1;fill-rule:nonzero;stroke:#0e559c;stroke-width:4.36036634;stroke-linecap:butt;stroke-linejoin:miter;stroke-miterlimit:4;stroke-dasharray:none;stroke-dashoffset:1.60000002;stroke-opacity:1;color-rendering:auto;image-rendering:auto;shape-rendering:auto;text-rendering:auto;enable-background:accumulate" />
      <path
         inkscape:connector-curvature="0"
         id="path4449-64"
         d="m 492.81309,724.60109 c -8.2691,-1.92748 -15.2581,-9.16764 -17.5613,-18.19236 -3.3313,-13.05277 2.2477,-25.47773 13.7138,-30.54229 10.6409,-4.70008 22.0292,-2.92184 29.2849,4.57272 4.388,4.53245 6.3746,9.04875 4.4921,10.21221 -0.5775,0.3569 -3.3625,0.56815 -6.1888,0.46946 -3.8993,-0.13609 -5.5021,-0.62797 -6.6447,-2.03892 -5.2851,-6.52687 -16.5038,-4.94792 -20.2808,2.85439 -6.1255,12.65358 4.5285,25.63247 16.8238,20.49516 5.7979,-2.42254 5.4412,-6.67115 -0.461,-5.49071 -1.4547,0.29092 -3.178,0.0155 -3.9601,-0.63408 -1.6065,-1.33333 -1.9134,-8.78202 -0.4003,-9.71717 1.8152,-1.12181 22.3856,-0.44673 23.2156,0.76188 1.1329,1.64963 -0.04,10.5437 -1.9612,14.87075 -4.5199,10.18084 -17.1673,15.38702 -30.072,12.37896 z m 16.6952,-6.23584 c 2.0863,-0.94741 4.8473,-3.11552 6.1356,-4.818 2.4932,-3.29465 4.8076,-10.37321 3.8815,-11.87159 -0.306,-0.49516 -3.5385,-0.87115 -7.1834,-0.83553 -4.4913,0.0438 -6.033,0.31536 -4.7838,0.84236 1.0137,0.42768 3.3146,0.56627 5.1131,0.30796 2.3074,-0.33139 3.6283,-0.038 4.4873,0.99721 1.0286,1.23941 0.831,2.25662 -1.2745,6.56017 -3.4551,7.0619 -7.502,9.12133 -16.7569,8.52738 -5.3981,-0.34641 -7.3052,-0.89731 -9.8645,-2.84939 -9.6934,-7.39349 -9.4022,-25.17185 0.5198,-31.73794 6.7606,-4.47394 18.0743,-3.81941 23.2382,1.34442 1.3193,1.31931 2.7032,2.09432 3.0753,1.72219 1.1617,-1.16172 -5.0485,-5.91158 -9.1857,-7.02561 -9.327,-2.51151 -18.3997,0.75477 -23.4986,8.4598 -3.2529,4.91537 -3.9867,13.47129 -1.6746,19.52527 1.7883,4.68281 6.992,10.08958 11.076,11.50838 4.4914,1.56037 12.5069,1.24489 16.6952,-0.65708 z m -16.2345,-3.76634 c 0,-0.50687 -0.4392,-0.92158 -0.9759,-0.92158 -0.5368,0 -0.7197,0.41471 -0.4064,0.92158 0.3132,0.50685 0.7524,0.92156 0.976,0.92156 0.2235,0 0.4063,-0.41471 0.4063,-0.92156 z m -11.0588,-0.4064 c 0,-0.22352 -0.4147,-0.6627 -0.9216,-0.97596 -0.5068,-0.31326 -0.9215,-0.13039 -0.9215,0.4064 0,0.53677 0.4147,0.97596 0.9215,0.97596 0.5069,0 0.9216,-0.18288 0.9216,-0.4064 z m -2.3039,-3.2799 c 0.3132,-0.50685 0.1304,-0.92156 -0.4064,-0.92156 -0.5368,0 -0.976,0.41471 -0.976,0.92156 0,0.50687 0.1829,0.92158 0.4064,0.92158 0.2235,0 0.6627,-0.41471 0.976,-0.92158 z m -0.2353,-4.14705 c -0.2422,-1.26716 -0.8312,-2.30392 -1.3089,-2.30392 -0.4777,0 -0.5726,-0.47879 -0.211,-1.06396 0.3617,-0.58519 0.2675,-0.82285 -0.2093,-0.52815 -0.4769,0.29468 -0.782,1.70655 -0.6781,3.13748 0.2385,3.28526 0.1226,3.06247 1.5932,3.06247 0.8413,0 1.1095,-0.75898 0.8141,-2.30392 z m 29.6744,-22.8466 c -2.3318,-1.30495 -6.8607,-1.7244 -6.8607,-0.63543 0,0.49697 0.9331,0.90992 2.0736,0.91768 1.1404,0.007 2.6758,0.3951 3.4119,0.86076 0.736,0.46566 1.7224,0.60927 2.1918,0.31914 0.4695,-0.29011 0.102,-0.94809 -0.8166,-1.46215 z m 8.806,-0.65344 c 0,-0.50685 -0.4392,-0.92156 -0.9759,-0.92156 -0.5368,0 -0.7197,0.41471 -0.4064,0.92156 0.3132,0.50687 0.7524,0.92158 0.9759,0.92158 0.2235,0 0.4064,-0.41471 0.4064,-0.92158 z m -2.7647,-3.11949 c 0,-2.3415 -4.2599,-4.10883 -11.1508,-4.62624 l -6.8198,-0.51204 4.1471,1.38034 c 2.2809,0.75919 5.0837,1.55361 6.2285,1.76537 3.7409,0.692 5.7519,1.53441 5.7519,2.40946 0,0.47271 0.4147,0.85946 0.9215,0.85946 0.5069,0 0.9216,-0.57436 0.9216,-1.27635 z"
         style="fill:#f2a506;fill-opacity:1" />
    </g>
  </g>
</svg>
