<?xml version="1.0" encoding="UTF-8" standalone="no"?>
<!-- Created with Inkscape (http://www.inkscape.org/) -->

<svg
   xmlns:dc="http://purl.org/dc/elements/1.1/"
   xmlns:cc="http://creativecommons.org/ns#"
   xmlns:rdf="http://www.w3.org/1999/02/22-rdf-syntax-ns#"
   xmlns:svg="http://www.w3.org/2000/svg"
   xmlns="http://www.w3.org/2000/svg"
   xmlns:sodipodi="http://sodipodi.sourceforge.net/DTD/sodipodi-0.dtd"
   xmlns:inkscape="http://www.inkscape.org/namespaces/inkscape"
   width="19.799351mm"
   height="30.43914mm"
   viewBox="0 0 70.155179 107.85522"
   id="svg4233"
   version="1.1"
   inkscape:version="0.91 r13725"
   sodipodi:docname="logo_small.svg"
   inkscape:export-filename="/home/fuchur/logo.svg.png"
   inkscape:export-xdpi="153.61"
   inkscape:export-ydpi="153.61">
  <defs
     id="defs4235" />
  <sodipodi:namedview
     id="base"
     pagecolor="#ffffff"
     bordercolor="#666666"
     borderopacity="1.0"
     inkscape:pageopacity="0.0"
     inkscape:pageshadow="2"
     inkscape:zoom="1.979899"
     inkscape:cx="-123.65916"
     inkscape:cy="81.502888"
     inkscape:document-units="px"
     inkscape:current-layer="layer1"
     showgrid="false"
     fit-margin-top="0"
     fit-margin-left="0"
     fit-margin-right="0"
     fit-margin-bottom="0"
     inkscape:window-width="1920"
     inkscape:window-height="1016"
     inkscape:window-x="0"
     inkscape:window-y="27"
     inkscape:window-maximized="1" />
  <metadata
     id="metadata4238">
    <rdf:RDF>
      <cc:Work
         rdf:about="">
        <dc:format>image/svg+xml</dc:format>
        <dc:type
           rdf:resource="http://purl.org/dc/dcmitype/StillImage" />
        <dc:title></dc:title>
      </cc:Work>
    </rdf:RDF>
  </metadata>
  <g
     inkscape:label="Layer 1"
     inkscape:groupmode="layer"
     id="layer1"
     transform="translate(-445.60981,-627.00602)">
    <g
       id="g4743"
       transform="matrix(0.80362837,0,0,0.80362837,47.876113,-32.175816)">
      <path
         sodipodi:nodetypes="csscsccsccsscccssccssssssccccccsssssscscsscsssscccccccccccc"
         inkscape:connector-curvature="0"
         id="path4243-7-1-7-4"
         d="m 532.89072,872.15997 c -9.71525,1.40136 -18.43897,5.89108 -25.43116,13.08834 -3.26878,3.36464 -5.69355,6.79762 -7.66582,10.8532 l -0.81553,1.67698 -0.24617,-0.30401 c -0.41833,-0.51661 -0.95328,-1.68465 -1.20832,-2.63828 -0.81567,-3.81042 -0.73993,-4.62992 -0.73376,-8.67556 0,-1.88187 0.38056,-3.81483 0.12372,-4.59835 -0.16218,-0.49476 -0.51065,-1.17539 -0.79231,-1.54753 l -0.97507,-1.84496 1.41023,1.25158 c 1.28812,1.14322 2.43668,1.19725 3.69548,2.97267 1.00029,1.41081 1.73644,1.37249 2.61033,1.45646 3.14149,-0.80922 1.78767,-4.46056 1.63189,-5.75029 -0.21336,-4.45373 1.62053,-10.28327 4.40207,-13.50239 0.79623,-0.88985 2.22003,-2.26962 2.22003,-2.15136 0,0.0356 -0.11656,0.32812 -0.25902,0.65018 -0.30039,0.67908 -0.52765,3.0582 -0.29593,3.75745 1.17853,0.75345 3.49211,1.49551 4.35376,-0.698 0.93079,-0.9951 1.11017,-1.48229 2.06554,-5.60978 0.88498,-3.82339 2.30174,-5.73902 6.4282,-8.6917 4.06028,-2.90532 5.38898,-4.39604 5.98415,-6.71385 0.43892,-1.70928 -0.0219,-4.23134 -1.00968,-5.52642 -0.48833,-0.64024 -0.16837,-0.47386 0.59961,0.31181 1.83308,1.87528 2.69596,4.25321 2.56729,7.0749 -0.0797,1.74797 -1.35747,4.66462 -2.58545,6.94914 -1.82302,2.36569 -0.23377,6.91303 2.66717,6.46217 1.44042,-0.27176 6.45483,0.0818 7.54351,-2.18601 2.81177,-9.00004 7.27211,-12.06601 13.28657,-17.126 6.58236,-5.64911 0.49254,-17.27579 -5.47019,-20.44315 l -0.74951,-0.2991 0.81108,0.0747 c 2.85813,0.2632 7.59551,1.98389 10.07793,4.94173 2.61325,3.11375 2.71869,6.22862 2.86225,9.53735 0.10746,2.47671 -0.17044,3.69721 -1.44717,6.35568 -1.16795,2.43197 -2.03255,3.7238 -4.40643,6.58381 -2.57542,3.10282 -3.47229,4.50983 -4.11515,6.45587 -0.34867,1.05549 -0.39231,1.34955 -0.39813,2.6828 -0.008,1.72234 0.25561,2.87261 0.99336,4.34262 1.33826,2.66659 3.77109,4.31678 6.37992,4.32754 0.70996,0.003 2.26793,-0.50661 3.0152,-0.98614 2.37685,-1.52522 3.38045,-4.54933 2.03889,-6.14369 l -0.32602,-0.38745 0.30555,0.0928 c 0.58543,0.17778 1.51374,0.74188 1.82016,1.10603 1.22929,1.46094 1.53019,3.6376 1.09798,7.94278 -0.42757,4.25904 -0.96313,6.68822 3.49444,11.69358 2.732,3.06773 4.71102,6.92928 6.82961,10.85033 11.75356,33.91217 -3.85827,-23.15116 -41.84939,-18.73989 z m 34.83801,-2.30855 c 0.0984,-9.26504 7.14403,-7.09747 7.28365,-14.56675 6.23612,9.98357 -3.87785,17.54768 -2.74168,23.26644 -1.63025,-2.04623 -4.52872,-6.5967 -4.54197,-8.69969 z M 545.907,820.2814 c 0.0901,-0.036 0.1977,-0.0316 0.23916,0.01 0.0415,0.0414 -0.0323,0.0709 -0.16377,0.0655 -0.14536,-0.006 -0.17493,-0.0356 -0.0754,-0.0754 z"
         style="fill:#d8102c;fill-opacity:1" />
      <circle
         r="40.936092"
         cy="910.81836"
         cx="538.57141"
         id="path4169-8-2-8-6"
         style="color:#000000;clip-rule:nonzero;display:inline;overflow:visible;visibility:visible;opacity:1;isolation:auto;mix-blend-mode:normal;color-interpolation:sRGB;color-interpolation-filters:linearRGB;solid-color:#000000;solid-opacity:1;fill:none;fill-opacity:1;fill-rule:nonzero;stroke:#0e559c;stroke-width:5.42584896;stroke-linecap:butt;stroke-linejoin:miter;stroke-miterlimit:4;stroke-dasharray:none;stroke-dashoffset:1.60000002;stroke-opacity:1;color-rendering:auto;image-rendering:auto;shape-rendering:auto;text-rendering:auto;enable-background:accumulate" />
    </g>
    <path
       style="fill:#f2a506;fill-opacity:1"
       d="m 473.13542,724.60109 c -8.2691,-1.92748 -15.2581,-9.16764 -17.5613,-18.19236 -3.3313,-13.05277 2.2477,-25.47773 13.7138,-30.54229 10.6409,-4.70008 22.0292,-2.92184 29.2849,4.57272 4.388,4.53245 6.3746,9.04875 4.4921,10.21221 -0.5775,0.3569 -3.3625,0.56815 -6.1888,0.46946 -3.8993,-0.13609 -5.5021,-0.62797 -6.6447,-2.03892 -5.2851,-6.52687 -16.5038,-4.94792 -20.2808,2.85439 -6.1255,12.65358 4.5285,25.63247 16.8238,20.49516 5.7979,-2.42254 5.4412,-6.67115 -0.461,-5.49071 -1.4547,0.29092 -3.178,0.0155 -3.9601,-0.63408 -1.6065,-1.33333 -1.9134,-8.78202 -0.4003,-9.71717 1.8152,-1.12181 22.3856,-0.44673 23.2156,0.76188 1.1329,1.64963 -0.04,10.5437 -1.9612,14.87075 -4.5199,10.18084 -17.1673,15.38702 -30.072,12.37896 z m 16.6952,-6.23584 c 2.0863,-0.94741 4.8473,-3.11552 6.1356,-4.818 2.4932,-3.29465 4.8076,-10.37321 3.8815,-11.87159 -0.306,-0.49516 -3.5385,-0.87115 -7.1834,-0.83553 -4.4913,0.0438 -6.033,0.31536 -4.7838,0.84236 1.0137,0.42768 3.3146,0.56627 5.1131,0.30796 2.3074,-0.33139 3.6283,-0.038 4.4873,0.99721 1.0286,1.23941 0.831,2.25662 -1.2745,6.56017 -3.4551,7.0619 -7.502,9.12133 -16.7569,8.52738 -5.3981,-0.34641 -7.3052,-0.89731 -9.8645,-2.84939 -9.6934,-7.39349 -9.4022,-25.17185 0.5198,-31.73794 6.7606,-4.47394 18.0743,-3.81941 23.2382,1.34442 1.3193,1.31931 2.7032,2.09432 3.0753,1.72219 1.1617,-1.16172 -5.0485,-5.91158 -9.1857,-7.02561 -9.327,-2.51151 -18.3997,0.75477 -23.4986,8.4598 -3.2529,4.91537 -3.9867,13.47129 -1.6746,19.52527 1.7883,4.68281 6.992,10.08958 11.076,11.50838 4.4914,1.56037 12.5069,1.24489 16.6952,-0.65708 z m -16.2345,-3.76634 c 0,-0.50687 -0.4392,-0.92158 -0.9759,-0.92158 -0.5368,0 -0.7197,0.41471 -0.4064,0.92158 0.3132,0.50685 0.7524,0.92156 0.976,0.92156 0.2235,0 0.4063,-0.41471 0.4063,-0.92156 z m -11.0588,-0.4064 c 0,-0.22352 -0.4147,-0.6627 -0.9216,-0.97596 -0.5068,-0.31326 -0.9215,-0.13039 -0.9215,0.4064 0,0.53677 0.4147,0.97596 0.9215,0.97596 0.5069,0 0.9216,-0.18288 0.9216,-0.4064 z m -2.3039,-3.2799 c 0.3132,-0.50685 0.1304,-0.92156 -0.4064,-0.92156 -0.5368,0 -0.976,0.41471 -0.976,0.92156 0,0.50687 0.1829,0.92158 0.4064,0.92158 0.2235,0 0.6627,-0.41471 0.976,-0.92158 z m -0.2353,-4.14705 c -0.2422,-1.26716 -0.8312,-2.30392 -1.3089,-2.30392 -0.4777,0 -0.5726,-0.47879 -0.211,-1.06396 0.3617,-0.58519 0.2675,-0.82285 -0.2093,-0.52815 -0.4769,0.29468 -0.782,1.70655 -0.6781,3.13748 0.2385,3.28526 0.1226,3.06247 1.5932,3.06247 0.8413,0 1.1095,-0.75898 0.8141,-2.30392 z m 29.6744,-22.8466 c -2.3318,-1.30495 -6.8607,-1.7244 -6.8607,-0.63543 0,0.49697 0.9331,0.90992 2.0736,0.91768 1.1404,0.007 2.6758,0.3951 3.4119,0.86076 0.736,0.46566 1.7224,0.60927 2.1918,0.31914 0.4695,-0.29011 0.102,-0.94809 -0.8166,-1.46215 z m 8.806,-0.65344 c 0,-0.50685 -0.4392,-0.92156 -0.9759,-0.92156 -0.5368,0 -0.7197,0.41471 -0.4064,0.92156 0.3132,0.50687 0.7524,0.92158 0.9759,0.92158 0.2235,0 0.4064,-0.41471 0.4064,-0.92158 z m -2.7647,-3.11949 c 0,-2.3415 -4.2599,-4.10883 -11.1508,-4.62624 l -6.8198,-0.51204 4.1471,1.38034 c 2.2809,0.75919 5.0837,1.55361 6.2285,1.76537 3.7409,0.692 5.7519,1.53441 5.7519,2.40946 0,0.47271 0.4147,0.85946 0.9215,0.85946 0.5069,0 0.9216,-0.57436 0.9216,-1.27635 z"
       id="path4449-64"
       inkscape:connector-curvature="0" />
  </g>
</svg>
